<?xml version="1.0" encoding="iso-8859-1"?>
<!-- Uploaded to: SVG Repo, www.svgrepo.com, Generator: SVG Repo Mixer Tools -->
<svg height="800px" width="800px" version="1.1" id="Layer_1" xmlns="http://www.w3.org/2000/svg" xmlns:xlink="http://www.w3.org/1999/xlink" 
	 viewBox="0 0 390.206 390.206" xml:space="preserve">
<g>
	<path style="fill:#FFC10D;" d="M246.044,260.687c0,11.895-9.762,21.139-21.139,21.139h-39.564v-10.861
		c0-5.947-4.848-10.861-10.861-10.861h-21.139c0.517-11.378,9.762-20.622,21.139-20.622h50.424
		C236.8,239.547,246.044,249.309,246.044,260.687z"/>
	<path style="fill:#FFC10D;" d="M367.968,260.105H267.701c-0.517-16.291-9.762-30.384-23.855-37.366
		c2.715-2.198,4.331-5.43,4.331-8.663v-5.947c0-5.947-4.848-10.861-10.861-10.861c-5.947,0-10.861,4.848-10.861,10.861v5.947
		c0,1.616,0.517,3.232,1.099,4.331h-20.04c0.517-1.099,1.099-2.715,1.099-4.331v-5.947c0-5.947-4.913-10.861-10.861-10.861
		c-5.947,0-10.861,4.848-10.861,10.861v5.947c0,1.616,0.517,2.715,1.099,4.331h-13.576c-2.198,0-4.331,0-6.529,0.517
		c0.517-1.616,1.099-3.232,1.099-4.848v-5.947c0-5.947-4.848-10.861-10.861-10.861c-5.947,0-10.861,4.848-10.861,10.861v5.947
		c0,4.331,2.715,8.145,5.947,9.762c-12.994,7.046-21.657,20.622-21.657,36.331H83.329l-61.802-51.459v-26.57h257.616
		c25.471,0,48.808,10.861,65.034,28.186H318.19c-5.947,0-10.861,4.848-10.861,10.861c0,5.947,4.848,10.861,10.861,10.861h41.115
		C363.636,240.646,366.352,250.343,367.968,260.105z"/>
</g>
<g>
	<path style="fill:#194F82;" d="M78.028,196.752c-5.947,0-10.861,4.848-10.861,10.861v5.947c0,5.947,4.848,10.861,10.861,10.861
		s10.861-4.848,10.861-10.861v-5.947C88.889,201.6,83.976,196.752,78.028,196.752z"/>
	<path style="fill:#194F82;" d="M118.174,196.752c-5.947,0-10.861,4.848-10.861,10.861v5.947c0,5.947,4.848,10.861,10.861,10.861
		s10.861-4.848,10.861-10.861v-5.947C128.97,201.6,124.121,196.752,118.174,196.752z"/>
	<path style="fill:#194F82;" d="M278.044,196.752c-5.947,0-10.861,4.848-10.861,10.861v5.947c0,5.947,4.848,10.861,10.861,10.861
		c5.947,0,10.861-4.848,10.861-10.861v-5.947C288.84,201.6,283.992,196.752,278.044,196.752z"/>
</g>
<polygon style="fill:#56ACE0;" points="60.703,106.764 45.511,106.764 45.511,160.42 83.459,160.42 "/>
<path style="fill:#FFFFFF;" d="M246.044,261.204c0-11.895-9.762-21.139-21.139-21.139h-50.941c-11.378,0-20.622,9.244-21.139,20.622
	h21.139c5.947,0,10.861,4.849,10.861,10.861v11.378h40.081C236.865,282.343,246.044,272.582,246.044,261.204z"/>
<path style="fill:#194F82;" d="M279.661,160.42H106.731L77.446,92.154c-1.616-3.814-5.43-6.529-9.762-6.529H34.651
	c-5.947,0-10.861,4.848-10.861,10.861v64.453H10.861C4.913,160.937,0,165.786,0,171.798v42.796c0,3.232,1.616,6.529,3.814,8.145
	l68.267,56.889c2.198,1.616,4.331,2.715,7.046,2.715h84.558v11.378c0,5.947,4.848,10.861,10.861,10.861h50.424
	c16.291,0,30.319-8.663,37.366-22.238h117.01c5.947,0,10.861-4.848,10.861-10.861C390.206,209.745,340.364,160.42,279.661,160.42z
	 M185.341,282.343v-11.378c0-5.947-4.848-10.861-10.861-10.861h-21.139c0.517-11.378,9.762-20.622,21.139-20.622h50.424
	c11.895,0,21.139,9.762,21.139,21.139c0,11.895-9.762,21.139-21.139,21.139h-39.564V282.343z M267.701,260.105
	c-0.517-16.291-9.762-30.319-23.855-37.366c2.715-2.198,4.331-5.43,4.331-8.663v-5.947c0-5.947-4.848-10.861-10.861-10.861
	c-5.947,0-10.861,4.848-10.861,10.861v5.947c0,1.616,0.517,3.232,1.099,4.331c-1.099,0-2.198,0-2.715,0h-17.325
	c0.517-1.099,1.099-2.715,1.099-4.331v-5.947c0-5.947-4.848-10.861-10.861-10.861c-5.947,0-10.861,4.848-10.861,10.861v5.947
	c0,1.616,0.517,2.715,1.099,4.331h-13.576c-2.198,0-4.331,0-6.529,0.517c0.517-1.616,1.099-3.232,1.099-4.848v-5.947
	c0-5.947-4.848-10.861-10.861-10.861c-5.947,0-10.861,4.848-10.861,10.861v5.947c0,4.331,2.715,8.145,5.947,9.762
	c-12.994,7.046-21.657,20.622-21.657,36.331H83.329l-61.802-51.459v-26.57h78.028l0,0l0,0H278.95
	c25.471,0,48.808,10.861,65.034,28.186h-25.988c-5.947,0-10.861,4.848-10.861,10.861c0,5.947,4.848,10.861,10.861,10.861h41.309
	c4.331,8.663,7.046,18.424,8.663,28.186H267.701V260.105z M45.511,106.764h15.192l22.756,53.657H45.511V106.764z"/>
</svg>